<svg width="190" height="40" viewBox="0 0 190 40" fill="none" xmlns="http://www.w3.org/2000/svg">
  <path d="M20 0C8.954 0 0 8.954 0 20C0 31.046 8.954 40 20 40C31.046 40 40 31.046 40 20C40 8.954 31.046 0 20 0ZM20 36C10.058 36 4 29.942 4 20C4 10.058 10.058 4 20 4C29.942 4 36 10.058 36 20C36 29.942 29.942 36 20 36Z" fill="#4F46E5"/>
  <path d="M20 8C13.373 8 8 13.373 8 20C8 26.627 13.373 32 20 32C26.627 32 32 26.627 32 20C32 13.373 26.627 8 20 8ZM20 28C15.582 28 12 24.418 12 20C12 15.582 15.582 12 20 12C24.418 12 28 15.582 28 20C28 24.418 24.418 28 20 28Z" fill="#4F46E5"/>
  <path d="M20 16C17.791 16 16 17.791 16 20C16 22.209 17.791 24 20 24C22.209 24 24 22.209 24 20C24 17.791 22.209 16 20 16Z" fill="#4F46E5"/>
  <path d="M60 12H56V28H60V12Z" fill="#4F46E5"/>
  <path d="M68 12H64V28H68V12Z" fill="#4F46E5"/>
  <path d="M76 12H72V28H76V12Z" fill="#4F46E5"/>
  <path d="M84 12H80V28H84V12Z" fill="#4F46E5"/>
  <path d="M92 12H88V28H92V12Z" fill="#4F46E5"/>
  <path d="M100 12H96V28H100V12Z" fill="#4F46E5"/>
  <path d="M108 12H104V28H108V12Z" fill="#4F46E5"/>
  <path d="M116 12H112V28H116V12Z" fill="#4F46E5"/>
  <path d="M124 12H120V28H124V12Z" fill="#4F46E5"/>
  <path d="M132 12H128V28H132V12Z" fill="#4F46E5"/>
  <path d="M140 12H136V28H140V12Z" fill="#4F46E5"/>
  <path d="M148 12H144V28H148V12Z" fill="#4F46E5"/>
  <path d="M156 12H152V28H156V12Z" fill="#4F46E5"/>
  <path d="M164 12H160V28H164V12Z" fill="#4F46E5"/>
  <path d="M172 12H168V28H172V12Z" fill="#4F46E5"/>
  <path d="M180 12H176V28H180V12Z" fill="#4F46E5"/>
  <path d="M188 12H184V28H188V12Z" fill="#4F46E5"/>
</svg> 