<svg width="64" height="64" viewBox="0 0 64 64" fill="none" xmlns="http://www.w3.org/2000/svg">
  <path d="M32 0C14.327 0 0 14.327 0 32C0 49.673 14.327 64 32 64C49.673 64 64 49.673 64 32C64 14.327 49.673 0 32 0ZM32 56C17.641 56 8 46.359 8 32C8 17.641 17.641 8 32 8C46.359 8 56 17.641 56 32C56 46.359 46.359 56 32 56Z" fill="white"/>
  <path d="M32 16C23.164 16 16 23.164 16 32C16 40.836 23.164 48 32 48C40.836 48 48 40.836 48 32C48 23.164 40.836 16 32 16ZM32 40C26.477 40 24 34.523 24 32C24 29.477 26.477 24 32 24C37.523 24 40 29.477 40 32C40 34.523 37.523 40 32 40Z" fill="white"/>
  <path d="M32 24C28.686 24 24 28.686 24 32C24 35.314 28.686 40 32 40C35.314 40 40 35.314 40 32C40 28.686 35.314 24 32 24Z" fill="white"/>
</svg> 